# xmcd CD database file
# Copyright (C) 1997 Ti Kan
# 
# Track frame offsets:
#     150
#     13909
#     29242
#     46200
#     60942
#     73882
#     88320
#     102292
#     123480
#     140097
#     156412
#     169842
#     185884
#     201607
#     218385
# 
# Disc length: 3194 seconds
# 
# Revision: 1
# Processed by: cddbd v1.4b41PL1 Copyright (c) Steve Scherf et al.
# Submitted via: DiscPlay 4.0.4
# 
DISCID=ed0c780f
DTITLE=GEORGE  HAMILTON - CANADIAN COUNTRY GOLD
DYEAR=1900
DGENRE=
TTITLE0=HOMEFOLKS
TTITLE1=THE FARMER'S SONG
TTITLE2=PAPER ROSIE
TTITLE3=NAVAJO RUG
TTITLE4=THE FRENCH SONG
TTITLE5=CANADA
TTITLE6=R. R. #2
TTITLE7=WORKING MAN
TTITLE8=YOUR DISTANT ARMS
TTITLE9=NORTH COUNTRY
TTITLE10=CARPENTER OF WOOD
TTITLE11=JESUS IT'S ME AGAIN
TTITLE12=CHILDREN OF THE STREET
TTITLE13=THE MOON IS OUT TO GET ME
TTITLE14=GOOD FRIENDS
EXTD=
EXTT0=
EXTT1=
EXTT2=
EXTT3=
EXTT4=
EXTT5=
EXTT6=
EXTT7=
EXTT8=
EXTT9=
EXTT10=
EXTT11=
EXTT12=
EXTT13=
EXTT14=
PLAYORDER=
